#N canvas 659 181 634 655 12;
#X obj 100 399 snapshot~;
#X obj 24 317 tgl 19 0 empty empty empty 0 -10 0 12 #fcfcfc #000000 #000000 0 1;
#X floatatom 100 423 5 0 0 0 - - - 0;
#X obj 181 206 tgl 19 0 empty empty empty 0 -10 0 12 #fcfcfc #000000 #000000 0 1;
#X floatatom 127 366 5 0 0 0 - - - 0;
#X obj 154 337 tgl 19 0 empty empty empty 0 -10 0 12 #fcfcfc #000000 #000000 0 1;
#X obj 181 311 tgl 19 0 empty empty empty 0 -10 0 12 #fcfcfc #000000 #000000 0 1;
#X floatatom 127 145 5 0 0 0 - - - 0;
#X floatatom 154 177 5 0 0 0 - - - 0;
#X msg 494 519 \; pd dsp \$1;
#X text 495 561 DSP on/off;
#X obj 494 465 loadbang;
#X msg 494 489 1;
#X obj 6 41 cnv 1 620 1 empty empty empty 8 12 0 13 #000000 #000000 0;
#X obj 46 12 zDet~;
#X text 107 11 - zero crossing pitch detector;
#X text 138 104 inlet 1: signal;
#X text 28 52 [zDet~] analyzes an incoming sound based on zero crossings., f 78;
#X obj 100 105 osc~;
#X obj 100 83 nbx 5 17 -1e+37 1e+37 0 1 empty empty empty 0 -10 0 12 #fcfcfc #000000 #000000 432 256;
#X obj 100 273 zDet~ 60 600;
#X text 194 272 2 optional arguments: 1) low detection threshold;
#X text 349 290 2) high detection threshold;
#X text 169 144 inlet 2: low detection threshold;
#X text 197 176 inlet 3: high detection threshold;
#X text 209 205 inlet 4: on/off (defaults to on);
#X obj 24 341 metro 100;
#X text 176 398 outlet 1: signal rate frequency output;
#X text 176 365 outlet 2: message rate frequency output;
#X text 176 336 outlet 3: low threshold detector. 0 = frequency below range;
#X obj 24 269 loadbang;
#X msg 24 293 1;
#X text 205 310 outlet 4: output detector. 1 = new frequency reported;
#X text 64 535 notes: can get warbly with higher frequencies;
#X text 444 624 (c) 2024 Brian Lindgren;
#X obj 100 446 osc~;
#X obj 100 470 *~ 0.5;
#X obj 139 446 tgl 19 1 empty empty empty 0 -10 0 12 #fcfcfc #000000 #000000 0 0.5;
#X obj 100 494 dac~;
#X text 163 445 <== turn on to hear detected frequency;
#X connect 0 0 2 0;
#X connect 1 0 26 0;
#X connect 2 0 35 0;
#X connect 3 0 20 3;
#X connect 7 0 20 1;
#X connect 8 0 20 2;
#X connect 11 0 12 0;
#X connect 12 0 9 0;
#X connect 18 0 20 0;
#X connect 19 0 18 0;
#X connect 20 0 0 0;
#X connect 20 1 4 0;
#X connect 20 2 5 0;
#X connect 20 3 6 0;
#X connect 26 0 0 0;
#X connect 30 0 31 0;
#X connect 31 0 1 0;
#X connect 35 0 36 0;
#X connect 36 0 38 0;
#X connect 36 0 38 1;
#X connect 37 0 36 1;
